<?xml version="1.0" standalone="no"?>
<!DOCTYPE svg PUBLIC "-//W3C//DTD SVG 20010904//EN"
 "http://www.w3.org/TR/2001/REC-SVG-20010904/DTD/svg10.dtd">
<svg version="1.0" xmlns="http://www.w3.org/2000/svg"
 width="200.000000pt" height="200.000000pt" viewBox="0 0 200.000000 200.000000"
 preserveAspectRatio="xMidYMid meet">
<metadata>
Created by potrace 1.16, written by Peter Selinger 2001-2019
</metadata>
<g transform="translate(0.000000,200.000000) scale(0.100000,-0.100000)"
fill="#000000" stroke="none">
<path d="M560 1449 c-38 -15 -78 -58 -91 -96 -16 -49 -3 -97 35 -138 l33 -35
-25 -13 c-15 -6 -37 -28 -50 -47 -33 -49 -28 -132 12 -184 53 -70 87 -80 294
-84 l182 -4 0 306 0 306 -182 -1 c-101 0 -194 -5 -208 -10z m290 -133 c0 -41
3 -81 6 -90 5 -14 -7 -16 -99 -16 -110 0 -142 7 -170 35 -25 25 -22 87 6 112
27 26 47 30 165 32 l92 1 0 -74z m10 -282 l0 -106 -136 4 -136 3 -29 33 c-37
41 -39 89 -6 128 28 33 70 41 205 43 l102 1 0 -106z"/>
<path d="M964 1155 l1 -305 48 0 47 0 0 130 0 130 134 0 c74 0 142 -3 151 -6
25 -10 45 -59 45 -112 0 -27 3 -70 6 -96 l7 -46 58 0 c61 0 75 11 42 36 -15
10 -19 31 -21 114 l-4 101 -34 27 -33 26 34 29 c84 69 63 212 -39 258 -36 16
-68 19 -242 19 l-201 0 1 -305z m396 205 c22 -15 25 -25 25 -75 0 -51 -3 -60
-27 -78 -23 -17 -43 -20 -160 -21 l-133 -1 -3 102 -3 101 138 -5 c110 -4 143
-8 163 -23z"/>
<path d="M0 679 l0 -141 94 4 c84 3 97 6 120 27 32 30 35 80 7 105 -17 16 -18
20 -4 46 12 26 12 33 -1 58 -20 38 -31 42 -132 42 l-84 0 0 -141z"/>
<path d="M290 680 l0 -140 100 0 100 0 0 25 c0 24 -2 25 -70 25 l-70 0 0 115
0 115 -30 0 -30 0 0 -140z"/>
<path d="M532 709 l3 -111 33 -29 c27 -25 41 -29 87 -29 46 0 60 4 87 29 l33
29 3 111 4 111 -36 0 -35 0 -3 -107 c-3 -107 -3 -108 -31 -121 -24 -12 -31
-11 -53 2 -23 16 -24 21 -24 121 l0 105 -36 0 -36 0 4 -111z"/>
<path d="M840 680 l0 -140 30 0 c30 0 30 0 30 56 l0 55 53 -3 52 -3 5 -50 c5
-50 5 -50 43 -53 35 -3 49 9 27 23 -5 3 -10 25 -10 49 0 23 -5 47 -11 53 -8 8
-7 17 5 34 23 34 20 57 -13 90 -28 28 -33 29 -120 29 l-91 0 0 -140z"/>
<path d="M1140 680 l0 -140 30 0 c30 0 30 1 30 55 l0 55 50 0 c54 0 56 -2 62
-75 3 -26 8 -30 34 -33 l31 -3 -5 53 c-2 29 -10 60 -17 68 -11 12 -11 18 1 34
22 30 17 74 -11 101 -22 23 -32 25 -115 25 l-90 0 0 -140z"/>
<path d="M1430 680 l0 -140 115 0 115 0 0 25 c0 25 -1 25 -80 25 l-80 0 0 35
0 35 75 0 c73 0 75 1 75 25 0 24 -2 25 -75 25 l-75 0 0 30 0 30 80 0 c79 0 80
0 80 25 l0 25 -115 0 -115 0 0 -140z"/>
<path d="M1710 680 l0 -140 75 0 c42 0 91 6 109 14 96 40 109 192 21 246 -26
16 -50 20 -119 20 l-86 0 0 -140z m177 68 c17 -16 23 -33 23 -64 0 -58 -24
-85 -83 -91 l-47 -6 0 92 0 91 42 0 c29 0 49 -7 65 -22z"/>
</g>
</svg>
